<mxfile host="app.diagrams.net" modified="2023-11-27T02:46:39.999Z" agent="Mozilla/5.0 (Macintosh; Intel Mac OS X 10_15_7) AppleWebKit/605.1.15 (KHTML, like Gecko) Version/17.0 Safari/605.1.15" version="22.1.4" etag="P-KqTCm-bX4qGBIDCVz3" type="github">
  <diagram name="Seite-1" id="GasPzUFFIWTW-y6paIUb">
    <mxGraphModel>
      <root>
        <mxCell id="0" />
        <mxCell id="1" parent="0" />
      </root>
    </mxGraphModel>
  </diagram>
</mxfile>
